# xmcd
#
# Track frame offsets:
#	150
#	19262
#	31559
#	48650
#
# Disc length: 792 seconds
#
# Revision: 0
# Processed by: cddbd v1.5.2PL0 Copyright (c) Steve Scherf et al.
# Submitted via: EasyCDDAExtractor 10.2.0.1
#
DISCID=27031604
DTITLE=Various Artist - Southern Communications AOH99
DYEAR=1900
DGENRE=
TTITLE0=Carroll Roberson - I Believe Jesus Died For Me
TTITLE1=Loretta Reffeitt - Hold On
TTITLE2=Otha Geeslin - Foot Of The Cross
TTITLE3=Heartsound - God Says I Will
EXTD=
EXTT0=
EXTT1=
EXTT2=
EXTT3=
PLAYORDER=
